<svg width="240" height="240" viewBox="0 0 240 240" fill="none" xmlns="http://www.w3.org/2000/svg">
<path d="M50.7227 0C22.6238 0 0 22.6238 0 50.7227V189.277C0 217.376 22.6238 240 50.7227 240H189.277C217.376 240 240 217.376 240 189.277V50.7227C240 22.6238 217.376 0 189.277 0H50.7227ZM115 39.9805H125V49.9805H115V39.9805ZM74.043 56.9336L81.1133 64.0039L74.043 71.0742L66.9727 64.0039L74.043 56.9336ZM165.957 56.9336L173.027 64.0039L165.957 71.0742L158.887 64.0039L165.957 56.9336ZM120.273 59.9609C147.596 59.9609 170.195 80.7738 170.195 106.758C170.195 124.486 161.756 136.674 154.043 145.84C150.187 150.422 146.515 154.372 144.004 157.891C141.492 161.411 140.254 164.27 140.254 167.109V185.312V200.02H124.648H114.961H100.293V185.156V167.129C100.293 164.29 99.0713 161.465 96.5625 157.969C94.0537 154.473 90.3632 150.544 86.5039 145.977C78.7854 136.841 70.3516 124.618 70.3516 106.758C70.3516 80.7748 92.9508 59.9805 120.273 59.9805V59.9609ZM120.273 69.9414C97.9783 69.9414 80.3516 86.5633 80.3516 106.738C80.3516 121.54 86.8856 130.905 94.1406 139.492C97.7681 143.785 101.581 147.762 104.688 152.09C107.794 156.418 110.293 161.344 110.293 167.09V171.562C110.417 171.558 110.54 171.558 110.664 171.562H115V129.941H110V119.941H130V129.941H125V171.562H129.336C129.645 171.573 129.952 171.612 130.254 171.68V167.109C130.254 161.363 132.756 156.439 135.859 152.09C138.963 147.74 142.756 143.748 146.387 139.434C153.648 130.806 160.195 121.403 160.195 106.758C160.195 86.5838 142.569 69.9805 120.273 69.9805V69.9414ZM50 99.9805H60V109.98H50V99.9805ZM180 99.9805H190V109.98H180V99.9805ZM130.254 181.465C129.952 181.526 129.644 181.558 129.336 181.562H110.664C110.547 181.567 110.43 181.567 110.312 181.562C110.306 181.562 110.299 181.562 110.293 181.562V185.156V190.02H114.961H124.648H130.254V185.312V181.504V181.465Z" fill="#F66C1A"/>
</svg>
