<svg width="135" height="40" viewBox="0 0 135 40" fill="none" xmlns="http://www.w3.org/2000/svg">
<path d="M53.4466 30.8161C52.8903 31.2254 52.2606 31.4248 51.5678 31.4248C50.7911 31.4248 50.1614 31.1834 49.6786 30.7216C49.1957 30.2493 48.9438 29.6405 48.9438 28.8953C48.9438 28.0976 49.1643 27.4784 49.6261 27.0375C50.0879 26.5967 50.6652 26.3658 51.3684 26.3658C51.9667 26.3658 52.5544 26.5337 53.1422 26.8801L54.0239 25.4526C53.4781 24.9383 52.481 24.5815 51.3789 24.5815C49.941 24.5815 48.8284 24.9908 48.0412 25.799C47.254 26.6072 46.8552 27.6463 46.8552 28.8953C46.8552 30.1968 47.275 31.2254 48.1147 32.0231C48.9543 32.8103 50.0459 33.1986 51.3894 33.1986C51.9667 33.1986 52.5125 33.1147 53.0373 32.9362C53.5516 32.7578 53.9504 32.5164 54.2128 32.233L53.4466 30.8161ZM8.5227 6.65442H6.65442V31.4878V33.3456H8.5122H33.3351V31.4878H8.5227V16.1427H10.4539V10.4644H12.3117V6.66492H10.4435V10.4644H8.5227V6.65442ZM12.4482 21.7266H10.4959V23.6578H12.4482V21.7266ZM21.7371 21.7266H19.7848V23.6578H21.7371V21.7266ZM21.9575 14.159H20.0052V15.9958H23.8153V15.9853V14.159H29.5985V12.3222V10.433H31.4563H33.3456V8.59617H31.4563V6.65442H29.5985V8.59617H27.5938V6.65442H25.736V8.59617H23.8258V6.65442H21.968V8.59617V10.433H20.0367V6.65442H18.179V10.433H16.2267V12.3222H14.3689V14.159V17.9795V19.8163H12.4587V21.7266H14.3689H16.2267V19.8268H23.9202V21.6636V23.5004V27.7512H21.8315V29.5985H18.116V31.4878H21.8315H23.9307V27.7407H25.8095V29.1787H27.6673V23.4899H29.5775V21.6531H27.6673H25.8095V19.8163V17.9795H23.9202H16.2267V14.159H18.179V12.3222H21.968V14.159H21.9575ZM33.3561 27.6883H31.4668V29.5356H33.3561V27.6883ZM31.4668 25.3897H33.3456V23.4794H31.4668H29.5775V27.6778H31.4668V25.3897ZM29.5775 27.6883H27.6673V31.4878H29.5775V27.6883ZM33.3456 19.8163H31.4668V17.9795H33.3456V16.1427H25.8095V17.9795H27.6988V19.8163H29.5775V21.6531H33.3456V19.8163ZM33.3456 12.3327H31.4878V14.1695H33.3456V12.3327ZM25.7255 10.433V12.3222H23.8153V10.433H25.7255ZM14.3584 16.1427H10.4435V17.9795H14.3584V16.1427ZM18.179 23.9832H16.3212V25.8515H14.4004V27.7512H16.3212H18.179V25.8515V23.9832ZM12.3432 29.5775V31.4878H16.1322V29.588H12.3432V29.5775ZM12.3432 25.82H10.4749V27.6568H12.3327V25.82H12.3432ZM21.821 25.82H19.8688V27.7512H21.821V25.82ZM16.1218 6.65442H14.264V8.5227H16.1218V6.65442ZM38.0268 0.0209919H40.042V2.03621V8.41774H38.0268V2.04671H31.6347V0.0209919H38.0268ZM37.9638 39.9895H39.979V37.9743V31.5928H37.9638V37.9848H31.5823V39.9895H37.9638ZM0 40V37.9848V31.5928H2.01522V37.9848H8.39675V40H2.01522H0ZM54.5802 28.9058C54.5802 30.2073 55.0105 31.2569 55.8712 32.0336C56.7318 32.8208 57.8339 33.2091 59.1879 33.2091C60.5104 33.2091 61.6124 32.7998 62.4836 31.9916C63.3653 31.1834 63.7956 30.1443 63.7956 28.8953C63.7956 27.5938 63.3653 26.5442 62.4941 25.7675C61.6439 24.9803 60.5419 24.592 59.1879 24.592C57.8234 24.592 56.7108 25.0118 55.8607 25.8305C55 26.6492 54.5802 27.6778 54.5802 28.9058ZM64.7717 28.9058C64.7717 30.2073 65.202 31.2569 66.0627 32.0336C66.9234 32.8208 68.0255 33.2091 69.3794 33.2091C70.7019 33.2091 71.804 32.7998 72.6751 31.9916C73.5568 31.1834 73.9871 30.1443 73.9871 28.8953C73.9871 27.5938 73.5568 26.5442 72.6856 25.7675C71.8355 24.9803 70.7334 24.592 69.3794 24.592C68.015 24.592 66.9024 25.0118 66.0522 25.8305C65.1916 26.6492 64.7717 27.6778 64.7717 28.9058ZM75.593 33.0727C75.7085 33.0727 76.0234 33.0832 76.5586 33.0937C77.0939 33.1147 77.5767 33.1252 78.0071 33.1252C80.1482 33.1252 81.3763 32.0861 81.3763 30.3332C81.3763 29.5565 81.1139 28.9268 80.5996 28.465C80.0958 28.0031 79.4135 27.7617 78.5739 27.7617C78.154 27.7617 77.8182 27.7827 77.5872 27.8352V26.5127H80.8305V24.7284H75.593V33.0727ZM92.6909 33.0727V34.5001H94.5487V31.2779H93.3731V24.7284H91.3894V31.2779H89.2902V24.7284H87.3065V31.2779H85.2073V24.7284H83.2236V33.0622H92.6909V33.0727ZM101.172 33.0727V31.2884H97.8969V29.777H100.678V27.9927H97.8969V26.5232H101.056V24.7389H95.9236V33.0727H101.172ZM109.023 30.8161C108.466 31.2254 107.837 31.4248 107.144 31.4248C106.367 31.4248 105.737 31.1834 105.255 30.7216C104.772 30.2493 104.53 29.6405 104.53 28.8953C104.53 28.0976 104.751 27.4784 105.213 27.0375C105.674 26.5967 106.252 26.3658 106.955 26.3658C107.553 26.3658 108.141 26.5337 108.729 26.8801L109.61 25.4526C109.065 24.9383 108.067 24.5815 106.965 24.5815C105.527 24.5815 104.415 24.9908 103.628 25.799C102.84 26.6072 102.442 27.6463 102.442 28.8953C102.442 30.1968 102.861 31.2254 103.701 32.0231C104.541 32.8103 105.632 33.1986 106.976 33.1986C107.553 33.1986 108.099 33.1147 108.624 32.9362C109.149 32.7578 109.537 32.5164 109.799 32.233L109.023 30.8161ZM112.749 26.5232V33.0727H114.732V26.5232H117.325V24.7389H110.146V26.5232H112.749ZM118.563 33.0412C119.067 33.0937 119.896 33.1147 121.051 33.1147C122.027 33.1147 122.825 32.9047 123.423 32.4639C124.032 32.0231 124.336 31.3933 124.336 30.5432C124.336 29.546 123.801 28.8848 123.098 28.6329V28.6119C123.748 28.1921 124.084 27.5728 124.084 26.7541C124.084 25.5156 123.14 24.6864 121.177 24.6864C120.4 24.6864 119.519 24.7074 118.553 24.7599V33.0412H118.563ZM125.575 28.9058C125.575 30.2073 126.005 31.2569 126.866 32.0336C127.726 32.8208 128.828 33.2091 130.182 33.2091C131.505 33.2091 132.607 32.7998 133.478 31.9916C134.36 31.1834 134.79 30.1443 134.79 28.8953C134.79 27.5938 134.36 26.5442 133.489 25.7675C132.638 24.9803 131.536 24.592 130.182 24.592C128.818 24.592 127.705 25.0118 126.855 25.8305C125.994 26.6492 125.575 27.6778 125.575 28.9058ZM53.9294 5.53136V10.9263C53.2682 11.3986 52.5649 11.619 51.8512 11.619C50.6862 11.619 49.9515 11.0942 49.9515 9.34138V5.53136H46.8447V10.244C46.8447 13.4348 49.0593 14.4529 51.022 14.4529C52.2816 14.4529 53.2577 14.1905 53.9399 13.6762V18.7352H57.0467V5.53136H53.9294ZM68.7812 18.7352V15.9013H63.6381V13.5083H68.0045V10.6744H63.6381V8.35476H68.5922V5.52086H60.5314V18.7247L68.7812 18.7352ZM81.1034 15.1666C80.2322 15.8069 79.2351 16.1322 78.154 16.1322C76.926 16.1322 75.9394 15.7544 75.1837 15.0197C74.428 14.264 74.0396 13.2983 74.0396 12.1333C74.0396 10.8738 74.386 9.88717 75.1102 9.19444C75.8239 8.49121 76.7371 8.13435 77.8496 8.13435C78.7838 8.13435 79.7179 8.39675 80.6311 8.94253L81.9955 6.67541C81.1454 5.86723 79.571 5.30045 77.8391 5.30045C75.5825 5.30045 73.8402 5.9407 72.5912 7.2212C71.3527 8.50171 70.7229 10.1496 70.7229 12.1228C70.7229 14.18 71.3841 15.8174 72.7066 17.0874C74.0291 18.3364 75.74 18.9557 77.8496 18.9557C78.7628 18.9557 79.613 18.8192 80.4316 18.5463C81.2503 18.2629 81.8696 17.8851 82.2789 17.4337L81.1034 15.1666ZM86.9496 8.35476V18.7352H90.0564V8.35476H94.1393V5.52086H82.8772V8.35476H86.9496ZM107.238 18.7352V5.53136H104.131V10.5904H99.1774V5.53136H96.0706V18.7352H99.1774V13.4138H104.131V18.7352H107.238ZM109.768 12.1333C109.768 14.1905 110.45 15.8489 111.793 17.0979C113.158 18.3469 114.879 18.9662 116.999 18.9662C119.078 18.9662 120.809 18.3259 122.163 17.0454C123.538 15.7649 124.221 14.117 124.221 12.1438C124.221 10.0866 123.538 8.42823 122.184 7.17922C120.841 5.9302 119.12 5.31094 116.999 5.31094C114.858 5.31094 113.116 5.97219 111.772 7.27368C110.429 8.56468 109.768 10.1811 109.768 12.1333ZM135 18.7352V15.9013H129.857V13.5083H134.223V10.6744H129.857V8.35476H134.811V5.52086H126.75V18.7247L135 18.7352ZM2.01522 0H0V2.01522V8.40724H2.01522V2.01522H8.39675V0C8.40724 0 2.01522 0 2.01522 0ZM113.063 12.1333C113.063 10.9473 113.431 9.98163 114.166 9.24692C114.9 8.5122 115.834 8.13435 116.978 8.13435C118.091 8.13435 119.015 8.5122 119.781 9.24692C120.537 9.98163 120.904 10.9473 120.904 12.1333C120.904 13.2983 120.558 14.264 119.875 15.0197C119.193 15.7544 118.228 16.1322 116.978 16.1322C115.887 16.1322 114.963 15.7544 114.197 14.9777C113.452 14.201 113.063 13.2564 113.063 12.1333ZM127.684 28.9058C127.684 28.1606 127.915 27.5518 128.388 27.0795C128.86 26.6177 129.448 26.3763 130.182 26.3763C130.886 26.3763 131.484 26.6177 131.967 27.0795C132.449 27.5413 132.68 28.1501 132.68 28.9058C132.68 29.6405 132.46 30.2493 132.03 30.7321C131.599 31.1939 130.98 31.4353 130.182 31.4353C129.49 31.4353 128.891 31.1939 128.409 30.7111C127.926 30.2073 127.684 29.6195 127.684 28.9058ZM121.303 29.7035C122.006 29.7035 122.352 29.9554 122.352 30.4487C122.352 31.0365 121.964 31.3304 121.198 31.3304C120.935 31.3304 120.715 31.3094 120.526 31.2569V29.7035H121.303ZM121.156 26.4707C121.691 26.4707 122.111 26.7436 122.111 27.216C122.111 27.7512 121.796 28.0241 121.198 28.0241H120.547V26.5127C120.841 26.4812 121.051 26.4707 121.156 26.4707ZM78.3954 29.5565C79.0777 29.5565 79.382 29.9449 79.382 30.4907C79.382 31.0575 79.0252 31.3514 78.301 31.3514C78.1645 31.3514 77.9126 31.3304 77.5558 31.2884V29.63C77.8706 29.5775 78.1435 29.5565 78.3954 29.5565ZM66.8814 28.9058C66.8814 28.1606 67.1123 27.5518 67.5846 27.0795C68.0569 26.6177 68.6447 26.3763 69.3794 26.3763C70.0826 26.3763 70.6809 26.6177 71.1637 27.0795C71.6465 27.5413 71.8775 28.1501 71.8775 28.9058C71.8775 29.6405 71.6571 30.2493 71.2267 30.7321C70.7964 31.1939 70.1771 31.4353 69.3794 31.4353C68.6867 31.4353 68.0884 31.1939 67.6056 30.7111C67.1228 30.2073 66.8814 29.6195 66.8814 28.9058ZM56.6793 28.9058C56.6793 28.1606 56.9103 27.5518 57.3826 27.0795C57.8549 26.6177 58.4427 26.3763 59.1774 26.3763C59.8806 26.3763 60.4789 26.6177 60.9617 27.0795C61.4445 27.5413 61.6754 28.1501 61.6754 28.9058C61.6754 29.6405 61.455 30.2493 61.0247 30.7321C60.5943 31.1939 59.9751 31.4353 59.1774 31.4353C58.4846 31.4353 57.8864 31.1939 57.4036 30.7111C56.9208 30.2283 56.6793 29.6195 56.6793 28.9058Z" fill="#63666A"/>
</svg>
