<svg viewBox="0 0 40 40" width="40" height="40" xmlns="http://www.w3.org/2000/svg"><path d="M4 20q0-1.65.3-3.3C5.9 19.3 8.7 21 12 21c5 0 9-4 9-9 0-3.3-1.7-6.1-4.3-7.7Q18.35 4 20 4c2.9 0 5.8.8 8.4 2.3.9.5 2.1.2 2.7-.7.5-.9.2-2.1-.7-2.7C27.3 1 23.7 0 20 0 9 0 0 9 0 20c0 3.7 1 7.3 2.9 10.4.4.7 1 1 1.7 1 .4 0 .8-.1 1.1-.4 1-.5 1.3-1.8.7-2.7C4.8 25.8 4 22.9 4 20m8-13c2.8 0 5 2.2 5 5s-2.2 5-5 5-5-2.2-5-5 2.2-5 5-5m24.9 2.8c-.5-1-1.8-1.3-2.7-.7-1 .5-1.3 1.8-.7 2.7 1.6 2.5 2.4 5.4 2.4 8.3 0 1-.1 2.1-.3 3.1C34 20.7 31.2 19 28 19c-5 0-9 4-9 9 0 3.3 1.7 6.1 4.4 7.7-1.1.2-2.3.4-3.5.4-2.9 0-5.8-.9-8.3-2.4-.9-.5-2.1-.2-2.7.7-.5.9-.2 2.1.7 2.7C12.7 39 16.3 40 20 40c11 0 20-9 20-20 0-3.7-1-7.3-3.1-10.2M28 33c-2.8 0-5-2.2-5-5s2.2-5 5-5 5 2.2 5 5-2.2 5-5 5" fill="#F55"></path></svg>