<?xml version="1.0" encoding="UTF-8"?> <svg xmlns="http://www.w3.org/2000/svg" width="147.946" height="48" viewBox="0 0 147.946 48"> <path d="M131.324 45.005v-3.691a8.887 8.887 0 001.829.225c1.6 0 2.824-1.091 3.658-3.37l.033-.064-5.885-12.753v1.458a6.8 6.8 0 00-1.79-.071 4.768 4.768 0 00-3.922 2.389v8.754h-4.462V22.475h3.947v2.607c1.091-1.7 2.792-2.607 6.226-2.607h3.318l4.493 10.4 3.819-10.4h4.621l-6.835 17.266c-1.733 4.3-4.14 5.616-6.643 5.616a10.4 10.4 0 01-2.407-.352zm-28.446-14.827a7.76 7.76 0 017.927-8.151c6.387 0 8.44 5.039 7.413 9.6h-10.847c.514 2.246 2.888 3.177 5.424 3.177a11.561 11.561 0 004.654-.931v3.5a14.659 14.659 0 01-5.648.963c-4.88-.007-8.923-2.799-8.923-8.158zm4.461-1.444h6.868a2.97 2.97 0 00-3.241-3.306 3.393 3.393 0 00-3.627 3.306zm-45.948 1.444a7.76 7.76 0 017.927-8.151c6.387 0 8.441 5.039 7.414 9.6H65.884c.513 2.246 2.888 3.177 5.424 3.177a11.562 11.562 0 004.654-.931v3.5a14.658 14.658 0 01-5.648.963c-4.88-.007-8.923-2.799-8.923-8.158zm4.461-1.444h6.869a2.97 2.97 0 00-3.242-3.306 3.394 3.394 0 00-3.628 3.306zm-23.065 7.574v-4.59a14.387 14.387 0 007.959 2.375c2.6 0 4.2-.546 4.2-2.151.004-4.203-12.287-2.631-12.287-10.59 0-4.332 3.787-6.387 8.216-6.387a15.369 15.369 0 017.284 1.733v4.493a11.871 11.871 0 00-6.931-1.989c-2.439.032-3.659.706-3.659 2.086 0 3.883 12.292 2.439 12.292 10.43 0 5.039-4.044 6.611-8.761 6.611a17.218 17.218 0 01-8.313-2.021zm49.006 1.572l-6.354-15.404h4.75l3.947 10.686 3.948-10.686h4.75l-6.354 15.4zm-12.406 0V14.452h4.461V37.88z" stroke="rgba(0,0,0,0)" stroke-miterlimit="10"></path> <path d="M19.251 14.373h9.489A14.372 14.372 0 0014.368 0v9.489a4.883 4.883 0 014.883 4.884" fill="#eb4f6a"></path> <path d="M27.892 28.745a14.387 14.387 0 00-13.52-9.489 4.883 4.883 0 01-4.883-4.883H0a14.374 14.374 0 0014.372 14.372 4.883 4.883 0 014.883 4.883h9.489a14.343 14.343 0 00-.852-4.883" fill="#f4b63f"></path> <path d="M9.489 33.628H0A14.372 14.372 0 0014.372 48v-9.489a4.883 4.883 0 01-4.883-4.883" fill="#61d2a5"></path> </svg> 