<svg width="295" height="168" viewBox="0 0 295 168" fill="none" xmlns="http://www.w3.org/2000/svg">
<rect width="295" height="168" rx="16" fill="#D61D28"/>
<path d="M230.934 75.8604C230.617 76.2028 228.917 78.1358 228.6 78.4671L228.505 78.5666L227.882 79.2072C227.882 79.2072 227.776 78.4782 227.723 78.2462C227.628 77.7161 227.523 77.208 227.47 76.9871C227.132 75.4076 225.748 70.2162 222.188 69.4762C219.949 69.0123 217.689 70.5807 216.115 72.602C216.115 71.9724 216.178 71.2876 216.189 70.658C216.333 68.9235 216.333 67.1791 216.189 65.4446C216.149 64.4304 215.828 63.4502 215.265 62.6228C214.703 61.7955 213.923 61.1565 213.02 60.7834C211.605 60.3946 210.125 60.3455 208.689 60.6398C208.478 60.8497 208.89 61.6229 208.922 63.6663C208.928 65.4297 208.843 67.1921 208.668 68.946C208.383 73.4746 208.056 79.9914 209.133 84.752C210.126 89.1702 212.83 92.0088 216.749 92.8372C217.893 93.1047 219.073 93.157 220.234 92.9919C223.762 92.4175 226.139 89.3469 227.628 83.5922C227.753 83.15 227.982 82.7475 228.294 82.4214C228.621 82.079 230.406 80.2123 230.702 79.8368C230.702 78.5003 230.86 77.1859 230.913 75.8604H230.934ZM223.445 82.2226C223.171 84.9619 222.009 87.5907 220.794 88.2203C220.515 88.372 220.207 88.4567 219.893 88.4682C219.579 88.4797 219.266 88.4176 218.977 88.2865C216.981 87.3035 216.379 84.1445 216.242 83.1946C216.247 83.1174 216.247 83.0399 216.242 82.9626C216.102 80.9734 216.466 78.9807 217.298 77.1859C217.517 76.5863 217.85 76.0394 218.276 75.5781C218.703 75.1168 219.215 74.7507 219.78 74.5018C220.009 74.4251 220.251 74.4001 220.489 74.4287C220.728 74.4573 220.958 74.5387 221.164 74.6675C222.463 75.5291 223.773 79.0857 223.456 82.2226" fill="white"/>
<path d="M243.515 90.2304C242.539 90.1038 241.61 89.7241 240.811 89.1259C239.48 88.0214 238.835 86.9168 238.36 83.8462C238.36 83.4596 238.276 83.0509 238.255 82.6643C238.138 78.8868 238.635 76.6667 238.783 73.3862C238.92 70.3045 239.163 68.239 239.142 65.1463C239.142 61.6228 237.695 58.7952 235.804 58.022C234.184 57.4258 232.418 57.4258 230.797 58.022C230.721 58.0563 230.659 58.12 230.626 58.2001C230.592 58.2802 230.59 58.3706 230.618 58.4528C231.04 60.1572 231.215 61.9185 231.135 63.6773C231.135 65.4777 230.871 71.4091 230.649 75.7389C230.649 77.0974 230.554 78.456 230.491 79.8036C230.491 80.2564 230.491 80.6209 230.491 80.9081C230.544 82.5981 230.597 83.2608 230.723 84.6636C231.294 90.8821 234.843 94.1626 239.427 93.7208C242.501 93.4336 244.317 90.4072 243.536 90.2084" fill="white"/>
<path d="M69.58 118.805C65.6084 117.701 64.8268 112.631 64.0874 109.052C63.6121 106.744 63.2635 104.369 63.0311 102.005C61.3622 87.3368 60.4855 73.7951 58.8061 59.1378C58.5526 56.9287 58.4364 56.0893 58.1829 53.2506L58.0244 51.9914C58.0138 51.8831 57.9643 51.783 57.8859 51.7112C57.8075 51.6395 57.7061 51.6015 57.6019 51.6049C55.9865 51.8065 54.4192 52.3117 52.9755 53.096C51.4122 53.9907 49.5849 55.1946 48.8455 56.5311C47.7536 58.4876 47.0126 60.6362 46.6591 62.8712C43.0361 78.7545 37.8815 98.0398 34.512 113.039C33.9522 115.536 33.2973 118.032 32.5157 120.451C31.6179 123.168 30.5616 126.57 27.1182 128.448C26.4475 128.874 25.7005 129.153 24.9232 129.267C24.1458 129.381 23.3544 129.328 22.5974 129.111C21.2243 128.779 20.7173 127.929 20.168 127.907C19.9251 127.907 19.999 128.15 20.0624 128.393C21.0236 131.971 24.9951 137.571 29.9595 136.953C32.9065 136.588 37.5858 134.158 39.2547 130.58C40.1326 128.741 40.806 126.802 41.2616 124.803C43.5431 116.453 50.3982 80.3561 52.6798 68.5817V68.7032C52.6798 72.5912 53.5353 78.7655 53.736 84.1668C53.9527 93.5113 54.7785 102.829 56.2077 112.056C56.6101 114.544 57.218 116.991 58.0244 119.369C58.4563 120.829 59.3637 122.085 60.589 122.918C61.8143 123.751 63.2801 124.11 64.7317 123.93C67.3618 123.676 68.7455 122.406 69.8757 119.391C69.8969 119.334 69.9063 119.274 69.903 119.213C69.8998 119.153 69.8841 119.094 69.857 119.04C69.8299 118.987 69.7921 118.94 69.7461 118.903C69.7001 118.867 69.647 118.841 69.5905 118.827" fill="white"/>
<path d="M274.801 82.9185C274.41 82.6534 273.861 83.2609 272.361 83.7137C271.913 83.8238 271.448 83.8307 270.997 83.7338C270.547 83.6369 270.122 83.4387 269.752 83.1528C269.382 82.8669 269.076 82.5003 268.856 82.0783C268.635 81.6564 268.505 81.1893 268.474 80.7094C268.342 79.8181 268.303 78.9144 268.358 78.0143C268.632 73.7287 268.939 67.5764 269.224 63.2907C269.319 62.0891 269.273 60.8798 269.086 59.6899C268.696 57.4146 268.22 56.0228 266.287 54.7195C265.488 54.1256 264.562 53.7455 263.59 53.6127C262.617 53.4798 261.629 53.5982 260.71 53.9574C261.403 55.6065 261.704 57.4067 261.587 59.2039C261.451 64.2131 260.911 69.2013 259.971 74.1153C259.558 76.5138 258.728 78.8127 257.52 80.8971C257.225 81.5249 256.777 82.0599 256.22 82.4478C255.664 82.8358 255.019 83.063 254.352 83.1062C253.81 83.0776 253.29 82.8773 252.859 82.5321C252.429 82.1868 252.11 81.7129 251.943 81.1733C251.487 80.1364 251.277 78.9997 251.331 77.8596C251.553 73.5519 252.06 70.5476 252.387 66.273C252.477 64.8939 252.477 63.5101 252.387 62.131C252.123 59.701 251.077 57.4256 249.155 56.4647C248.359 55.9908 247.472 55.7082 246.558 55.6375C245.645 55.5668 244.728 55.7098 243.873 56.056C244.716 58.4133 244.988 60.9516 244.666 63.4454C244.391 68.1286 243.958 71.5748 243.662 76.247C243.668 76.3168 243.668 76.3871 243.662 76.4569C243.662 76.976 243.715 77.5614 243.736 78.0364C243.782 78.9605 243.913 79.8779 244.127 80.7756C244.296 81.4715 244.518 82.1453 244.75 82.8301C246.863 87.1488 249.144 88.7725 252.64 88.9161C254.061 88.9475 255.462 88.565 256.686 87.8116C259.242 86.2652 260.108 83.8021 261.154 81.35C261.24 81.0875 261.303 80.8177 261.344 80.5437C262.601 85.5804 265.675 87.1709 268.421 87.7011C269.452 87.934 270.522 87.8823 271.528 87.5511C272.534 87.2199 273.44 86.6207 274.157 85.8124C274.928 84.7962 275.213 83.1615 274.833 82.9295" fill="white"/>
<path d="M167.295 94.6156C167.178 93.754 167.083 92.1856 167.083 92.1083C167.083 91.4014 166.999 90.6392 167.083 90.0428C167.358 85.7682 167.876 81.4494 168.14 77.1638C168.24 75.9623 168.194 74.7523 168.002 73.563C167.611 71.2877 167.136 69.907 165.203 68.5926C164.406 67.9987 163.481 67.6187 162.511 67.4858C161.54 67.3529 160.553 67.4712 159.637 67.8304C160.327 69.4803 160.624 71.2807 160.503 73.077C160.401 78.2894 159.885 83.4839 158.961 88.6069C158.548 91.0055 157.718 93.3043 156.51 95.3888C156.215 96.0165 155.767 96.5515 155.21 96.9395C154.654 97.3274 154.009 97.5546 153.341 97.5978C152.805 97.5574 152.293 97.3494 151.871 97.0008C151.449 96.6522 151.137 96.1791 150.975 95.6428C150.52 94.6057 150.31 93.4691 150.363 92.3292C150.585 88.0325 151.028 84.4096 151.324 80.1792C151.408 78.8 151.408 77.4165 151.324 76.0372C151.049 73.5962 150.014 71.3208 148.081 70.3599C147.285 69.8859 146.398 69.6034 145.485 69.5327C144.571 69.462 143.654 69.605 142.8 69.9512C143.645 72.3076 143.921 74.8459 143.603 77.3406C143.328 82.0238 142.958 86.0775 142.663 90.7607C142.668 90.8306 142.668 90.9007 142.663 90.9706C142.663 91.4897 142.663 92.0751 142.736 92.5501C142.78 93.4716 142.914 94.3858 143.138 95.2783C143.307 95.9742 143.518 96.659 143.75 97.3328C145.863 101.663 148.145 103.286 151.641 103.43C153.061 103.461 154.462 103.079 155.686 102.325C158.242 100.779 159.109 98.3158 160.154 95.8527C160.241 95.5943 160.305 95.3281 160.344 95.0574C161.601 100.094 164.717 101.088 167.474 100.713C169.122 100.503 169.946 99.7959 169.851 99.332C169.163 98.772 168.59 98.0743 168.164 97.2796C167.737 96.4849 167.467 95.6092 167.369 94.7039" fill="white"/>
<path d="M99.6199 75.5734C97.4018 75.5392 95.2031 76.0103 93.1767 76.9541C88.0644 79.3399 85.1702 84.2109 83.3746 89.9214C83.0471 90.9597 82.7091 92.6496 82.7091 92.6496C81.0503 94.2568 79.3121 95.7721 77.5017 97.1893C77.6179 94.1518 77.5968 91.4346 77.5651 89.7889C77.6386 87.9472 77.5998 86.1026 77.4489 84.2661C77.2482 82.4547 76.118 80.091 74.1428 79.4724C72.6964 79.1654 71.2057 79.1654 69.7593 79.4724C69.5586 79.6823 69.6748 79.9695 69.6854 80.2567V82.4657C69.6854 84.5865 69.7805 86.5967 69.791 88.5959C69.791 88.7837 69.791 89.0709 69.791 89.4685C69.791 90.0981 69.791 90.9928 69.791 92.0421C69.7171 93.3344 69.9706 104.192 70.2135 108.124C70.4142 111.537 71.9458 113.249 74.1639 113.89C75.9385 114.409 79.1495 113.305 79.1495 113.305C77.9771 111.383 77.9559 109.251 77.808 106.854C77.7024 105.109 77.713 102.093 77.713 102.093C77.713 102.093 80.3114 99.7297 82.3922 97.5648C82.4008 99.6645 82.6275 101.757 83.0682 103.805C83.9449 108.102 86.1525 111.162 90.1346 112.034C92.6283 112.618 95.2336 112.378 97.5918 111.35C102.873 109.019 105.862 104.325 107.637 98.4043C108.221 96.0735 108.575 93.6863 108.693 91.28C108.727 88.6985 108.428 86.1239 107.806 83.6255C106.644 78.8097 103.581 75.7059 99.6621 75.6176L99.6199 75.5734ZM99.5354 102.568C99.1761 103.792 98.6533 104.955 97.9827 106.026C96.2504 108.654 93.8632 108.5 92.6485 105.473C91.6991 103.09 91.0665 100.581 90.7684 98.0177C90.2531 94.1551 90.5414 90.2217 91.6134 86.4863C92.0779 84.8429 92.7911 83.2879 93.7259 81.8803C95.511 79.3509 97.6447 79.7817 98.9333 82.7308C99.1885 83.2725 99.3936 83.8384 99.5459 84.4208C99.8839 85.945 100.169 87.4914 100.338 88.3419C100.803 93.6216 100.771 98.1613 99.4614 102.524" fill="white"/>
<path d="M253.211 50.0473C257.003 50.699 260.024 49.0532 261.165 46.7889C261.87 45.7598 262.209 44.5061 262.126 43.2434C262.265 42.1563 262.013 41.054 261.418 40.1506C259.749 43.0114 257.193 43.4643 254.542 43.6741C253.095 43.7625 250.518 44.0165 249.166 42.4591C248.405 41.5865 248.183 42.194 248.194 43.0777C248.189 44.3855 248.49 45.6748 249.071 46.8331C249.469 47.6723 250.053 48.401 250.772 48.9596C251.492 49.5182 252.327 49.891 253.211 50.0473" fill="white"/>
<path d="M209.756 94.7371C209.098 94.53 208.459 94.2639 207.844 93.9418C205.77 92.6755 204.253 90.6095 203.619 88.1871C202.172 83.0731 202.035 77.7161 202.098 72.4364C202.098 69.3216 202.394 65.6324 202.553 62.385C202.553 61.7223 202.045 61.8328 201.496 61.877C199.732 62.0095 197.567 62.3188 196.437 64.5279C196.236 65.009 196.077 65.508 195.961 66.019C194.81 70.6691 190.986 83.8463 189.856 86.5303C189.658 87.053 189.421 87.5589 189.149 88.0436C188.802 87.7676 188.553 87.379 188.441 86.939C187.29 82.9074 185.272 72.5027 184.321 70.2825C182.969 67.0904 180.477 65.2569 178.438 65.2016C177.128 65.2016 175.618 65.1464 175.576 65.5219C175.651 66.2556 175.687 66.9932 175.681 67.731C175.618 70.9121 175.776 77.3185 175.459 82.3883C175.227 86.1437 175.459 99.6302 170.939 104.479C170.558 104.877 170.939 105.153 171.467 105.33C175.692 106.743 179.03 103.209 180.392 99.0779C181.171 96.3418 181.58 93.505 181.607 90.6503C181.807 86.9611 181.871 83.8684 181.924 81.5378C182.684 84.1998 183.381 86.5856 183.614 87.4581C183.804 88.5243 184.298 89.5058 185.029 90.2747C186.098 91.1029 187.334 91.6657 188.642 91.9205C191.736 92.7489 192.444 90.5177 193.257 88.6069C193.933 87.0495 194.842 84.3102 195.518 82.1122C195.518 82.2668 195.518 82.4214 195.518 82.5761C195.909 86.4751 196.447 90.8049 198.275 94.2842C199.711 97.0124 202.141 99.0448 204.697 99.0779C206.978 99.0779 209.334 98.1722 210.348 96.2172C210.493 95.9226 210.576 95.5985 210.591 95.2673C210.517 95.0022 210.063 94.8696 209.693 94.7481" fill="white"/>
<path d="M178.702 45.0438C179.553 48.8483 179.011 52.8481 177.181 56.2549C176.77 57.0833 177.108 57.5472 178.005 57.5252C179.605 57.3168 181.103 56.5952 182.294 55.4597C185.938 52.0135 187.575 48.4569 187.438 44.3369C187.54 42.5569 187.24 40.7768 186.563 39.1402C185.886 37.5036 184.85 36.0563 183.54 34.9152C180.386 32.2884 176.449 30.9045 172.418 31.0051C168.752 31.1079 165.151 32.0306 161.855 33.7112C159.329 35.034 156.958 36.6574 154.789 38.5491C151.535 41.4036 148.654 44.694 146.222 48.3354C143.562 45.525 140.54 43.116 137.244 41.1779C132.189 37.9291 126.241 36.5375 120.344 37.2237C117.956 37.3461 115.6 37.8566 113.362 38.7369C109.221 40.5704 105.408 43.3539 103.539 48.1255C102.743 50.023 102.361 52.0822 102.422 54.1532C102.482 56.2243 102.983 58.2553 103.887 60.0987C105.915 64.4617 108.662 66.9027 113.552 69.3658C116.523 70.7046 119.571 71.8482 122.678 72.7899C117.143 75.7501 113.626 80.113 112.253 87.6571C111.672 90.4539 111.551 93.3337 111.894 96.1731C112.95 105.473 119.763 110.157 127.431 106.964C131.952 105.087 134.741 101.232 136.579 96.3388C136.917 95.422 137.202 94.4721 137.498 93.4891C137.815 91.6555 138.395 87.1932 138.406 86.5746C138.417 85.9561 138.406 85.4701 138.406 84.8957C138.226 79.7485 136.948 75.2089 133.22 72.083H133.156L133.019 71.8732L132.776 71.6854L132.375 71.3872L132.121 71.2215C130.616 70.1532 129.054 69.1759 127.442 68.2944C124.062 66.5051 122.668 66.1958 119.277 64.4396C117.471 63.5007 112.411 60.9382 112.602 54.2226C112.602 52.4884 113.932 46.6233 121.421 44.5689C123.336 44.0035 125.331 43.7941 127.315 43.9503C131.34 44.2991 135.181 45.8606 138.374 48.4458C140.786 50.2101 143.061 52.1713 145.177 54.3109C145.689 54.771 146.353 55.0041 147.028 54.9608C147.702 54.9175 148.334 54.6012 148.789 54.079C150.919 50.3207 153.567 46.9115 156.648 43.9614C160.419 40.3944 165.359 38.4837 170.442 38.6264C175.354 38.8473 177.784 41.432 178.702 45.0438ZM129.301 98.2717C128.891 99.6267 128.266 100.9 127.453 102.038C125.625 104.512 123.502 104.104 122.171 101.199C120.981 98.3056 120.36 95.1916 120.344 92.0421C120.089 88.3214 120.578 84.586 121.78 81.074C122.256 79.7502 122.923 78.5099 123.756 77.3959C125.287 75.3525 127.051 75.8606 128.213 78.0476C129.538 80.2972 130.311 82.8546 130.463 85.4922C130.884 89.8051 130.489 94.1624 129.301 98.3159" fill="white"/>
</svg>
