<svg width="221" height="80" viewBox="0 0 221 80" fill="none" xmlns="http://www.w3.org/2000/svg">
<path d="M196.82 40.149C197.497 41.0658 198.391 41.801 199.42 42.289C200.574 42.8181 201.832 43.0813 203.1 43.059C204.47 43.0536 205.827 42.7925 207.1 42.289C208.416 41.7663 209.644 41.0446 210.74 40.149C211.869 39.2547 212.854 38.1923 213.66 36.999C214.462 35.8022 215.05 34.476 215.4 33.079C215.737 31.804 215.812 30.4738 215.62 29.169C215.438 28.0198 214.993 26.9281 214.32 25.979C213.647 25.0679 212.757 24.3392 211.73 23.859C210.569 23.334 209.305 23.0744 208.03 23.099C206.645 23.1033 205.273 23.3609 203.98 23.859C202.661 24.3746 201.432 25.097 200.34 25.999C199.227 26.9025 198.259 27.9716 197.47 29.169C196.68 30.3618 196.098 31.6807 195.75 33.069C195.408 34.3501 195.334 35.6878 195.53 36.999C195.708 38.1354 196.15 39.2142 196.82 40.149ZM199.5 32.999C199.796 31.7676 200.348 30.6125 201.12 29.609C201.84 28.6609 202.763 27.8854 203.82 27.339C204.855 26.8007 206.004 26.5226 207.17 26.529C207.982 26.5051 208.789 26.6658 209.53 26.999C210.169 27.2884 210.716 27.7487 211.11 28.329C211.521 28.9445 211.772 29.6524 211.84 30.389C211.93 31.2651 211.856 32.1503 211.62 32.999C211.335 34.2491 210.782 35.4226 210 36.439C209.281 37.3894 208.363 38.171 207.31 38.729C206.267 39.2826 205.102 39.5679 203.92 39.559C203.122 39.5749 202.33 39.4144 201.6 39.089C200.956 38.8046 200.402 38.3478 200 37.769C199.594 37.148 199.343 36.4378 199.27 35.699C199.187 34.7925 199.265 33.8783 199.5 32.999Z" fill="#55626A"/>
<path d="M140.82 23.819C139.826 23.2957 138.714 23.0374 137.59 23.069C136.434 23.0616 135.288 23.286 134.22 23.729C133.187 24.1579 132.262 24.8102 131.51 25.639C130.746 26.4914 130.209 27.5234 129.95 28.639C129.71 29.4396 129.659 30.2852 129.8 31.109C129.933 31.7096 130.227 32.2627 130.65 32.709C131.078 33.1167 131.567 33.4542 132.1 33.709C132.65 33.9835 133.214 34.2272 133.79 34.439C134.317 34.6346 134.828 34.8686 135.32 35.139C135.729 35.3613 136.073 35.6851 136.32 36.079C136.435 36.2989 136.505 36.5396 136.526 36.7869C136.547 37.0342 136.517 37.2831 136.44 37.519C136.357 37.8547 136.204 38.1694 135.992 38.4431C135.781 38.7168 135.514 38.9435 135.21 39.109C134.492 39.5156 133.675 39.7163 132.85 39.689C131.98 39.736 131.116 39.52 130.37 39.069C129.733 38.6323 129.231 38.0262 128.92 37.319L125.92 39.799C126.44 40.797 127.23 41.6286 128.2 42.199C129.317 42.7762 130.565 43.052 131.82 42.999C133.721 43.0585 135.592 42.5199 137.17 41.459C138.62 40.446 139.642 38.9318 140.04 37.209C140.284 36.3818 140.339 35.5102 140.2 34.659C140.087 34.0313 139.803 33.4468 139.38 32.969C138.983 32.5432 138.517 32.1882 138 31.919C137.44 31.649 136.88 31.399 136.32 31.179C135.795 30.9781 135.28 30.7477 134.78 30.489C134.385 30.2832 134.043 29.9889 133.78 29.629C133.658 29.4398 133.581 29.2251 133.555 29.0015C133.529 28.7778 133.555 28.5511 133.63 28.339C133.699 28.0393 133.829 27.7569 134.011 27.5092C134.194 27.2615 134.425 27.0538 134.69 26.899C135.324 26.5518 136.039 26.3825 136.76 26.409C137.396 26.3892 138.024 26.5412 138.58 26.849C139.131 27.1922 139.588 27.6663 139.91 28.229L142.91 25.749C142.413 24.919 141.687 24.2492 140.82 23.819Z" fill="#55626A"/>
<path d="M157.85 37.069L165.23 29.459L161.91 42.759H165.56L170.41 23.329H167.31L158.68 32.229L154.49 23.329H151.4L146.56 42.759H150.2L153.52 29.459L157.1 37.069H157.85Z" fill="#55626A"/>
<path d="M113.31 42.759L126.39 23.329H122.74L113.19 37.509L110.72 23.329H107.07L110.46 42.759H113.31Z" fill="#55626A"/>
<path d="M180 35.759H182.83C183.99 35.7633 185.136 35.5034 186.18 34.999C187.246 34.4925 188.188 33.7587 188.94 32.849C189.731 31.884 190.291 30.7523 190.58 29.539C190.889 28.4607 190.889 27.3174 190.58 26.239C190.287 25.3461 189.689 24.5849 188.89 24.089C187.985 23.5517 186.943 23.2877 185.89 23.329H179.41L174.57 42.749H178.22L180 35.759ZM182.32 26.449H184.78C185.281 26.4335 185.777 26.5582 186.21 26.809C186.604 27.0525 186.893 27.434 187.02 27.879C187.177 28.4213 187.177 28.9967 187.02 29.539C186.882 30.1536 186.605 30.7283 186.21 31.219C185.85 31.6666 185.391 32.0258 184.87 32.269C184.369 32.5138 183.818 32.6404 183.26 32.639H180.8L182.32 26.449Z" fill="#55626A"/>
<path d="M128.781 61.1405L126.311 46.9605H122.661L126.051 66.3905H128.901L141.971 46.9605H138.331L128.781 61.1405Z" fill="#55626A"/>
<path d="M143.461 66.3905H147.111L151.951 46.9605H148.311L143.461 66.3905Z" fill="#55626A"/>
<path d="M164.001 50.5405C164.608 50.188 165.298 50.0018 166.001 50.0005C166.636 49.9831 167.264 50.135 167.821 50.4405C168.361 50.7925 168.813 51.2648 169.141 51.8205L172.141 49.3405C171.66 48.5286 170.969 47.8617 170.141 47.4105C169.144 46.894 168.033 46.6394 166.911 46.6705C165.755 46.6642 164.609 46.8885 163.541 47.3305C162.507 47.7547 161.582 48.4038 160.831 49.2305C160.068 50.0844 159.532 51.1159 159.271 52.2305C159.033 53.0318 158.985 53.8775 159.131 54.7005C159.251 55.3058 159.546 55.8623 159.981 56.3005C160.407 56.7092 160.897 57.0468 161.431 57.3005C161.981 57.5705 162.541 57.8105 163.111 58.0305C163.64 58.22 164.151 58.4541 164.641 58.7305C165.046 58.9571 165.389 59.2799 165.641 59.6705C165.754 59.8892 165.823 60.1286 165.842 60.3743C165.86 60.62 165.829 60.867 165.751 61.1005C165.666 61.4358 165.514 61.7504 165.304 62.0254C165.095 62.3004 164.831 62.5301 164.531 62.7005C163.807 63.1027 162.988 63.3031 162.161 63.2805C161.294 63.323 160.434 63.1073 159.691 62.6605C159.071 62.2429 158.571 61.6707 158.241 61.0005L155.241 63.4805C155.767 64.4739 156.556 65.3039 157.521 65.8805C158.638 66.453 159.886 66.7252 161.141 66.6705C163.042 66.7355 164.915 66.1964 166.491 65.1305C167.942 64.124 168.965 62.612 169.361 60.8905C169.607 60.0639 169.665 59.1926 169.531 58.3405C169.414 57.7089 169.127 57.1211 168.701 56.6405C168.294 56.1941 167.805 55.8308 167.261 55.5705C166.714 55.292 166.153 55.0416 165.581 54.8205C165.058 54.6197 164.547 54.3893 164.051 54.1305C163.657 53.927 163.315 53.6363 163.051 53.2805C162.932 53.0879 162.858 52.8717 162.832 52.6471C162.806 52.4226 162.829 52.195 162.901 51.9805C162.974 51.6771 163.109 51.3923 163.298 51.1443C163.488 50.8963 163.727 50.6907 164.001 50.5405Z" fill="#55626A"/>
<path d="M196.671 46.9605L188.041 55.8605L183.851 46.9605H180.761L175.911 66.3905H179.561L182.881 53.0905L186.461 60.7005H187.211L194.591 53.0905L191.271 66.3905H194.921L199.761 46.9605H196.671Z" fill="#55626A"/>
<path d="M217.491 47.0005H214.641L201.571 66.3905H205.211L208.851 60.9905H216.291L217.231 66.3905H220.881L217.491 47.0005ZM211.141 57.6305L214.761 52.2505L215.701 57.6305H211.141Z" fill="#55626A"/>
<path d="M110.001 47.0005L96.8906 66.3905H100.541L104.171 60.9905H111.611L112.611 66.3905H116.251L112.811 47.0005H110.001ZM106.491 57.6305L110.111 52.2505L111.051 57.6305H106.491Z" fill="#55626A"/>
<path fill-rule="evenodd" clip-rule="evenodd" d="M80 40C80 62.0914 62.0914 80 40 80C17.9086 80 0 62.0914 0 40C0 17.9086 17.9086 0 40 0C50.9981 0 60.9595 4.43867 68.1906 11.6224L67.5132 12.203C60.875 5.88089 51.8907 2 42 2C21.5655 2 5 18.5655 5 39C5 59.4345 21.5655 76 42 76C62.4345 76 79 59.4345 79 39C79 34.5682 78.2208 30.3183 76.792 26.38L77.4661 25.9587C79.1042 30.3275 80 35.0591 80 40Z" fill="#55626A"/>
<path fill-rule="evenodd" clip-rule="evenodd" d="M38.9401 50.0005L21 52.5388L77.0276 13L62.8434 44.5H73.5L73.6233 45.0932L61.8246 46.7626L54.0726 63.9782C54 60 50 54 44.5 54C38.4541 54 33.9002 57.7298 27.9389 62.6124C26.9981 63.3829 26.0223 64.1822 25 65H23.5L38.9401 50.0005ZM42.8257 46.2258L57.6387 31.8356L34 47L42.8257 46.2258Z" fill="#55626A"/>
</svg>
