<svg width="1920" height="1080" viewBox="0 0 1920 1080" fill="none" xmlns="http://www.w3.org/2000/svg">
<rect width="1920" height="1080" fill="#25221F"/>
<g clip-path="url(#clip0_105_148)">
<path d="M593.54 852.09L692.052 969L778.371 892.326L750.345 859.06L686.982 915.322L644.429 864.817L707.792 808.556L679.859 775.416L593.54 852.09Z" fill="#F4F4F4"/>
<path d="M629.312 732.473L663.528 722.11L675.193 764.649L565.856 797.727L540.442 704.84C529.182 663.64 541.998 647.116 562.216 641.048L564.58 640.333C584.395 634.327 604.489 641.391 615.625 682.155L629.312 732.473ZM601.97 740.75L589.527 695.505C586.852 685.765 581.72 682.622 575.685 684.458H575.25C569.029 686.356 566.354 691.522 569.029 701.542L581.471 746.787L601.97 740.75Z" fill="#F4F4F4"/>
<path d="M530.551 520.56C539.882 446.064 575.872 440.493 597.055 442.952L601.565 443.481C622.593 445.939 656.809 459.507 647.322 534.19L646.451 541.316C637.119 615.999 600.352 621.475 579.325 619.11L574.659 618.363C553.6 615.999 520.161 602.4 529.649 527.561L530.551 520.56ZM592.296 488.695C580.351 487.326 564.674 493.518 560.35 527.686C555.933 562.445 569.682 571.469 581.626 572.838L583.431 573.056C595.251 574.425 612.141 568.357 616.465 534.221C620.789 500.084 606.542 490.376 594.411 488.944L592.296 488.695Z" fill="#F4F4F4"/>
<path d="M610.306 317.889L637.119 282.632L645.238 289.074L662.906 265.86C685.085 236.671 711.525 228.051 733.859 245.851L735.787 247.376C758.277 265.144 757.188 293.306 734.916 322.588L717.155 345.926L728.539 354.919L701.726 390.176L690.341 381.183L672.611 404.397C650.339 433.679 623.868 441.738 601.379 424.001L599.543 422.601C577.303 404.988 578.703 376.671 600.881 347.513L618.549 324.299L610.306 317.889ZM628.97 358C618.86 371.256 619.793 381.369 627.352 387.313L628.068 387.904C635.72 393.941 645.767 392.572 655.876 379.284L667.976 363.134L641.132 341.85L628.97 358ZM694.572 328.376L706.828 312.256C716.937 298.969 715.755 288.7 708.103 282.632L707.387 282.072C699.829 276.097 689.999 277.684 679.921 290.972L667.479 307.122L694.572 328.376Z" fill="#F4F4F4"/>
<path d="M854.923 134.885L866.09 160.681L790.347 196.093L796.07 209.287L870.258 174.591L881.394 200.232L807.175 234.929L813.458 249.398L890.29 213.457L901.706 239.845L785.805 294.053L740.111 188.563L854.923 134.885Z" fill="#F4F4F4"/>
<path d="M978.133 235.955C908.518 239.472 896.791 203.748 896.076 181.779V177.236C895.329 155.111 903.603 119.232 974.307 115.591L980.248 115.28C1049.12 111.764 1060.22 143.286 1060.72 158.161V160.183L1015.77 162.517C1014.74 159.405 1010.76 144.967 977.853 146.647C946.747 148.234 940.526 162.766 940.806 175.711V177.578C941.21 190.025 949.391 206.051 979.844 204.495C1013.22 202.784 1016.05 186.229 1016.55 183.522L1061.34 181.25V183.74C1061.84 198.863 1052.26 232.159 983.981 235.644L978.133 235.955Z" fill="#F4F4F4"/>
<path d="M1125.23 266.824C1064.67 232.595 1073.1 195.44 1083.74 176.085L1085.95 172.133C1096.65 152.684 1122 126.234 1183.49 161.055L1188.66 163.98C1248.6 197.898 1241.88 230.945 1234.6 244.108L1233.64 245.882L1194.54 223.726C1195.25 220.614 1199.3 205.927 1170.68 189.714C1143.49 174.342 1130.8 183.491 1124.52 194.88L1123.62 196.529C1117.58 207.483 1116.27 225.624 1142.81 240.623C1171.83 257.053 1182.69 244.326 1184.49 242.303L1223.4 264.366L1222.19 266.575C1214.85 279.863 1189.75 303.388 1130.33 269.687L1125.23 266.824Z" fill="#F4F4F4"/>
<path d="M1308.42 378.04L1213.7 344.868L1195.19 305.131L1297.71 253.817L1316.19 293.555L1251.71 325.855L1346.55 358.933L1365.03 398.702L1262.56 449.984L1244.06 410.247L1308.42 378.04Z" fill="#F4F4F4"/>
<path d="M1369.13 549.406C1361.39 624.089 1325.59 630.468 1304.46 628.508L1299.92 628.072C1278.83 626.143 1244.37 613.384 1252.14 538.639L1252.86 531.638C1260.64 456.706 1297.09 450.482 1318.18 452.412L1322.72 452.847C1343.94 454.808 1377.66 467.473 1369.88 542.405L1369.13 549.406ZM1308.14 582.702C1320.11 583.822 1335.63 577.225 1339.24 543.027C1342.85 508.206 1328.91 499.462 1316.97 498.466L1315.13 498.279C1303.31 497.19 1286.58 503.663 1283.03 537.861C1279.49 572.06 1293.95 581.426 1306.08 582.516L1308.14 582.702Z" fill="#F4F4F4"/>
<path d="M1330.66 696.656L1301.29 729.797L1271.8 702.444L1223.74 756.651L1253.26 784.004L1224.02 816.989L1140.6 739.692L1169.84 706.676L1201.57 736.082L1249.59 681.875L1217.87 652.469L1247.2 619.359L1330.66 696.656Z" fill="#F4F4F4"/>
<path d="M1025.48 783.008L1089.12 769.628L1094.28 749.494L1137.43 740.47L1103.21 865.813L1046.01 877.825L966.81 776.256L1013.47 766.485L1025.48 783.008ZM1070.3 843.782L1081.34 800.808L1044.36 808.587L1070.3 843.782Z" fill="#F4F4F4"/>
<path d="M828.016 779.71L865.343 808.307C892.747 770.966 903.883 761.132 914.646 756.807C925.408 752.482 936.42 753.944 952.782 766.578L963.918 775.073L944.29 801.741L942.486 800.341C937.633 796.638 934.46 794.989 930.292 796.327C923.573 798.225 914.739 807.591 878.905 856.229L775.914 777.376L844.813 684.022L879.216 710.348L828.016 779.71Z" fill="#F4F4F4"/>
<path d="M765.213 560.92L837.255 631.744L837.752 676.056L724.371 679.355L723.843 635.043L795.168 632.958L723.003 562.133L722.474 517.821L835.886 514.523L836.384 558.835L765.213 560.92Z" fill="#F4F4F4"/>
<path d="M819.96 433.679L780.642 464.205L762.196 439.031L875.608 350.998L894.023 376.142L854.705 406.668L903.883 473.696L869.076 500.675L819.96 433.679Z" fill="#F4F4F4"/>
<path d="M1055.9 340.916L1054.65 369.327L971.943 366.931L971.29 381.432L1052.35 383.797L1051.11 412.052L970.077 409.687L969.392 425.619L1053.32 428.046L1052.04 457.11L925.471 453.438L930.51 337.306L1055.9 340.916Z" fill="#F4F4F4"/>
<path d="M1130.86 426.304L1099.85 388.06L1123.77 367.584L1213.26 477.866L1189.34 498.342L1158.3 460.129L1094.53 514.71L1067.1 480.916L1130.86 426.304Z" fill="#F4F4F4"/>
</g>
<defs>
<clipPath id="clip0_105_148">
<rect width="843" height="854" fill="white" transform="translate(528 115)"/>
</clipPath>
</defs>
</svg>
