<svg width="170" height="50" viewBox="0 0 170 50" fill="none" xmlns="http://www.w3.org/2000/svg">
<path d="M9.57388 41.1931H6.49973V21.5388H9.58586V29.9381H13.0915V21.5388H16.2315V41.1931H13.0915V32.7939H9.57388V41.1931Z" fill="#FB3449"/>
<path d="M28.4561 41.1932H25.34L24.8067 37.6295H21.0194L20.4861 41.1932H17.6516L20.7977 21.5329H25.3101L28.4561 41.1932ZM21.4149 34.9657H24.4112L22.9011 24.9946L21.4149 34.9657Z" fill="#FB3449"/>
<path d="M29.8704 41.1931V21.5388H32.9566V38.3914H35.6172V21.5388H38.7094V38.3914H41.37V21.5388H44.4562V41.1931H29.8704Z" fill="#FB3449"/>
<path d="M60.3002 26.0625V26.7944C60.3002 28.8162 59.7009 30.1061 58.3107 30.754C59.9646 31.396 60.6118 32.8899 60.6118 34.9537V36.5555C60.6118 39.5913 59.0118 41.2171 55.9257 41.2171H51.0717V21.5388H55.7279C58.9279 21.5388 60.3002 23.0267 60.3002 26.0625ZM54.1579 24.3466V29.5421H55.3564C56.5069 29.5421 57.2081 29.0382 57.2081 27.4663V26.3684C57.2081 24.9645 56.7347 24.3466 55.638 24.3466H54.1579ZM54.1579 32.3499V38.3914H55.9556C56.9923 38.3914 57.5556 37.9114 57.5556 36.4535V34.7377C57.5556 32.9379 56.9564 32.3379 55.5601 32.3379L54.1579 32.3499Z" fill="#FB3449"/>
<path d="M66.5026 33.3938L65.5498 35.1937V41.1931H62.4637V21.5388H65.5498V30.1061L69.5887 21.5388H72.6749L68.3842 30.3041L72.6749 41.1931H69.5048L66.5026 33.3938Z" fill="#FB3449"/>
<path d="M73.208 38.4214C74.6103 38.4214 75.0597 38.2234 75.1136 36.3995L75.623 21.5388H84.3481V41.1931H81.202V24.3466H78.5114L78.1758 36.2316C78.0619 39.8312 76.7735 41.2291 73.6814 41.2291H73.208V38.4214Z" fill="#FB3449"/>
<path d="M96.693 41.1932H93.5769L93.0435 37.6295H89.2563L88.7229 41.1932H85.8885L89.0346 21.5329H93.5529L96.693 41.1932ZM89.6518 34.9657H92.648L91.1379 24.9946L89.6518 34.9657Z" fill="#FB3449"/>
<path d="M107.048 43.839V41.1932H100.456V43.833H97.46V38.4335H98.6585C99.191 37.6912 99.4571 36.7905 99.4136 35.8777L100.115 21.5269H108.756V38.4455H110.104V43.845L107.048 43.839ZM102.446 35.8357C102.362 37.3236 102.08 37.9715 101.577 38.4455H105.616V24.3467H102.979L102.446 35.8357Z" fill="#FB3449"/>
<path d="M130.545 8.24417C130.465 8.24445 130.388 8.26713 130.321 8.30959C130.254 8.35206 130.201 8.41257 130.167 8.48415L115.186 40.6533C115.151 40.7275 115.14 40.8101 115.152 40.8909C115.164 40.9717 115.201 41.047 115.256 41.1074C115.311 41.1677 115.382 41.2103 115.462 41.2299C115.541 41.2494 115.624 41.2451 115.701 41.2173L162.7 25.5527C162.781 25.5241 162.851 25.4713 162.9 25.4015C162.949 25.3317 162.976 25.2482 162.976 25.1627V8.65814C162.976 8.54835 162.932 8.44305 162.855 8.36542C162.777 8.28779 162.672 8.24417 162.562 8.24417H130.545Z" fill="#FB3449"/>
<path d="M7.88998 17.1954H6.49973V8.24417H7.90197V12.0778H9.49597V8.24417H10.9222V17.1954H9.49597V13.3497H7.88998V17.1954Z" fill="#FB3449"/>
<path d="M16.4651 17.1954H15.0509L14.8052 15.5696H13.0913L12.8456 17.1954H11.5573L12.9835 8.25623H15.0389L16.4651 17.1954ZM13.2651 14.3577H14.6194L13.9423 9.84009L13.2651 14.3577Z" fill="#FB3449"/>
<path d="M17.1183 8.24417H18.5205V15.9055H20.1145V8.24417H21.5407V15.9295H22.14V18.3953H20.7857V17.1954H17.1183V8.24417Z" fill="#FB3449"/>
<path d="M24.3572 17.1954H22.919V8.24417H24.1654V13.9017L24.6748 11.9338L25.8253 8.24417H27.3654V17.1954H26.107V10.8899L25.5077 13.0857L24.3572 17.1954Z" fill="#FB3449"/>
<path d="M28.2464 10.3919C28.2464 8.95802 29.0015 8.14209 30.3738 8.14209C31.746 8.14209 32.5071 8.95802 32.5071 10.3919V15.0355C32.5071 16.4694 31.752 17.2853 30.3738 17.2853C28.9955 17.2853 28.2464 16.4694 28.2464 15.0355V10.3919ZM29.6487 15.1255C29.6487 15.7614 29.9303 16.0074 30.3738 16.0074C30.8172 16.0074 31.1049 15.7614 31.1049 15.1255V10.3259C31.1049 9.68395 30.8232 9.44398 30.3738 9.44398C29.9243 9.44398 29.6487 9.68395 29.6487 10.3259V15.1255Z" fill="#FB3449"/>
<path d="M34.8143 17.1954H33.4121V8.24417H34.8143V12.0778H36.4083V8.24417H37.8345V17.1954H36.4083V13.3497H34.8143V17.1954Z" fill="#FB3449"/>
<path d="M43.3955 17.1954H41.9812L41.7356 15.5696H40.0157L39.77 17.1954H38.4816L39.9138 8.25623H41.9633L43.3955 17.1954ZM40.1955 14.3577H41.5438L40.8666 9.84009L40.1955 14.3577Z" fill="#FB3449"/>
<path d="M43.6533 15.9175C44.2945 15.9175 44.4983 15.8275 44.5222 14.9996L44.7499 8.24417H48.717V17.1954H47.2848V9.52206H46.0503L45.9005 14.9216C45.8526 16.5534 45.2653 17.1954 43.8631 17.1954H43.6533V15.9175Z" fill="#FB3449"/>
<path d="M49.7837 17.1954V8.24417H51.1859V11.6039H51.8451C53.2473 11.6039 53.9365 12.3838 53.9365 13.8117V14.9756C53.9365 16.4035 53.2413 17.1954 51.8451 17.1954H49.7837ZM51.8451 15.9175C52.2945 15.9175 52.5342 15.7135 52.5342 15.0716V13.7217C52.5342 13.0857 52.2945 12.8818 51.8451 12.8818H51.1859V15.8815L51.8451 15.9175Z" fill="#FB3449"/>
<path d="M56.1837 17.1954H54.7815V8.24417H56.1837V12.0778H57.7777V8.24417H59.2339V17.1954H57.8077V13.3497H56.1837V17.1954Z" fill="#FB3449"/>
<path d="M60.2223 17.1954V8.24417H61.6306V11.6039H62.2957C63.698 11.6039 64.3871 12.3838 64.3871 13.8117V14.9756C64.3871 16.4035 63.698 17.1834 62.2957 17.1834L60.2223 17.1954ZM62.2897 15.9175C62.7332 15.9175 62.9789 15.7135 62.9789 15.0716V13.7217C62.9789 13.0857 62.7332 12.8818 62.2897 12.8818H61.6306V15.8815L62.2897 15.9175ZM65.1841 17.1954V8.24417H66.5864V17.1954H65.1841Z" fill="#FB3449"/>
<path d="M69.0434 17.1954H67.6231V8.24417H68.8756V13.9017L69.3849 11.9338L70.5295 8.24417H72.0756V17.1954H70.8111V10.8899L70.2119 13.0857L69.0434 17.1954ZM70.4876 6.26434C70.4516 6.7383 70.2299 6.86429 69.8464 6.86429C69.4628 6.86429 69.2891 6.7503 69.2471 6.26434H68.3782C68.4021 6.64028 68.5682 6.99299 68.8426 7.25075C69.1169 7.50851 69.4791 7.65197 69.8553 7.65197C70.2316 7.65197 70.5938 7.50851 70.8681 7.25075C71.1425 6.99299 71.3086 6.64028 71.3325 6.26434H70.4876Z" fill="#FB3449"/>
<path d="M79.207 10.452V11.6159C79.207 13.0438 78.5178 13.8237 77.1156 13.8237H76.4564V17.1954H75.0542V8.24417H77.1156C78.5178 8.24417 79.207 9.0241 79.207 10.452ZM76.4564 9.52206V12.5218H77.1156C77.565 12.5218 77.8047 12.3178 77.8047 11.6819V10.362C77.8047 9.72604 77.565 9.52206 77.1156 9.52206H76.4564Z" fill="#FB3449"/>
<path d="M81.0045 13.9796V15.1255C81.0045 15.7614 81.2862 15.9954 81.7296 15.9954C82.1731 15.9954 82.4607 15.7614 82.4607 15.1255V13.1996H81.1723V11.9218H82.4607V10.3019C82.4607 9.65996 82.179 9.41998 81.7296 9.41998C81.2802 9.41998 81.0045 9.65996 81.0045 10.3019V11.1418H79.7042V10.3919C79.7042 8.95802 80.3933 8.14209 81.7716 8.14209C83.1498 8.14209 83.8629 8.95802 83.8629 10.3919V15.0355C83.8629 16.4694 83.1498 17.2853 81.7716 17.2853C80.3933 17.2853 79.6802 16.4694 79.6802 15.0355V13.9796H81.0045Z" fill="#FB3449"/>
<path d="M86.1997 17.1954H84.7975V8.24417H86.1997V12.0778H87.7937V8.24417H89.196V17.1954H87.7698V13.3497H86.1997V17.1954Z" fill="#FB3449"/>
<path d="M92.0605 13.5957L91.6291 14.4116V17.1954H90.2208V8.24417H91.6291V12.1378L93.4628 8.24417H94.865L92.9114 12.2278L94.865 17.1954H93.4268L92.0605 13.5957Z" fill="#FB3449"/>
<path d="M96.9447 17.1954H95.5005V8.24417H96.7529V13.9017L97.2623 11.9338L98.4068 8.24417H99.9829V17.1954H98.7185V10.8899L98.1192 13.0857L96.9447 17.1954Z" fill="#FB3449"/>
<path d="M102.38 17.1954H100.978V8.24417H102.38V12.0778H103.974V8.24417H105.376V17.1954H103.95V13.3497H102.38V17.1954Z" fill="#FB3449"/>
<path d="M106.401 17.1954V8.24417H110.098V9.52206H107.803V17.1954H106.401Z" fill="#FB3449"/>
</svg>
