<svg width="843" height="854" viewBox="0 0 843 854" fill="none" xmlns="http://www.w3.org/2000/svg">
<g clip-path="url(#clip0_105_159)">
<path d="M65.54 737.09L164.052 854L250.371 777.326L222.345 744.06L158.982 800.322L116.429 749.817L179.792 693.556L151.859 660.416L65.54 737.09Z" fill="#F4F4F4"/>
<path d="M101.312 617.473L135.528 607.11L147.193 649.649L37.8558 682.727L12.4423 589.84C1.182 548.64 13.9976 532.116 34.2164 526.048L36.5805 525.333C56.3949 519.327 76.4893 526.391 87.6252 567.155L101.312 617.473ZM73.9697 625.75L61.5274 580.505C58.8523 570.765 53.7198 567.622 47.6853 569.458H47.2498C41.0286 571.356 38.3535 576.522 41.0286 586.542L53.471 631.787L73.9697 625.75Z" fill="#F4F4F4"/>
<path d="M2.55067 405.56C11.8824 331.064 47.8719 325.493 69.055 327.952L73.5653 328.481C94.5929 330.939 128.809 344.507 119.322 419.19L118.451 426.316C109.119 500.999 72.3522 506.475 51.3247 504.11L46.6588 503.363C25.6001 500.999 -7.83869 487.4 1.6486 412.561L2.55067 405.56ZM64.2958 373.695C52.3512 372.326 36.6738 378.518 32.3501 412.686C27.9331 447.445 41.6818 456.469 53.6265 457.838L55.4306 458.056C67.2509 459.425 84.1413 453.357 88.4651 419.221C92.7888 385.084 78.5423 375.376 66.411 373.944L64.2958 373.695Z" fill="#F4F4F4"/>
<path d="M82.3061 202.889L109.119 167.632L117.238 174.074L134.906 150.86C157.085 121.671 183.525 113.051 205.859 130.851L207.787 132.376C230.277 150.144 229.188 178.306 206.916 207.588L189.155 230.926L200.539 239.919L173.726 275.176L162.341 266.183L144.611 289.397C122.339 318.679 95.8682 326.738 73.3787 309.001L71.5435 307.601C49.3028 289.988 50.7025 261.671 72.881 232.513L90.5491 209.299L82.3061 202.889ZM100.97 243C90.8602 256.256 91.7934 266.369 99.3521 272.313L100.068 272.904C107.72 278.941 117.767 277.572 127.876 264.284L139.976 248.134L113.132 226.85L100.97 243ZM166.572 213.376L178.828 197.257C188.937 183.969 187.755 173.7 180.103 167.632L179.387 167.072C171.829 161.097 161.999 162.684 151.921 175.972L139.479 192.122L166.572 213.376Z" fill="#F4F4F4"/>
<path d="M326.923 19.8845L338.09 45.6813L262.347 81.0935L268.07 94.2875L342.258 59.591L353.394 85.2321L279.175 119.929L285.458 134.398L362.29 98.4573L373.706 124.845L257.805 179.053L212.111 73.5629L326.923 19.8845Z" fill="#F4F4F4"/>
<path d="M450.133 120.955C380.518 124.472 368.791 88.7484 368.076 66.7791V62.2359C367.329 40.1111 375.603 4.2321 446.307 0.591307L452.248 0.280128C521.117 -3.2362 532.221 28.2862 532.719 43.1606V45.1833L487.771 47.5171C486.745 44.4053 482.763 29.9666 449.853 31.647C418.747 33.234 412.526 47.7661 412.806 60.7111V62.5782C413.21 75.0254 421.391 91.0511 451.844 89.4952C485.22 87.7837 488.051 71.229 488.549 68.5217L533.341 66.2501V68.7395C533.839 83.8628 524.258 117.159 455.981 120.644L450.133 120.955Z" fill="#F4F4F4"/>
<path d="M597.233 151.824C536.669 117.595 545.099 80.4399 555.737 61.0845L557.946 57.1326C568.646 37.6839 593.998 11.2336 655.494 46.0546L660.657 48.9797C720.598 82.8982 713.88 115.945 706.601 129.108L705.637 130.882L666.536 108.726C667.252 105.614 671.296 90.9266 642.678 74.7142C615.492 59.3419 602.801 68.4906 596.517 79.8798L595.615 81.529C589.581 92.4825 588.274 110.624 614.807 125.623C643.829 142.053 654.685 129.326 656.489 127.303L695.403 149.366L694.19 151.575C686.849 164.863 661.746 188.388 602.334 154.687L597.233 151.824Z" fill="#F4F4F4"/>
<path d="M780.415 263.04L685.698 229.868L667.19 190.131L769.715 138.817L788.192 178.555L723.709 210.855L818.551 243.933L837.028 283.702L734.565 334.984L716.057 295.247L780.415 263.04Z" fill="#F4F4F4"/>
<path d="M841.134 434.406C833.388 509.089 797.585 515.468 776.465 513.508L771.923 513.072C750.833 511.143 716.368 498.384 724.145 423.639L724.86 416.638C732.636 341.706 769.092 335.482 790.182 337.412L794.724 337.847C815.938 339.808 849.657 352.473 841.88 427.405L841.134 434.406ZM780.135 467.702C792.111 468.822 807.633 462.225 811.241 428.027C814.849 393.206 800.914 384.462 788.969 383.466L787.134 383.279C775.314 382.19 758.579 388.663 755.033 422.861C751.487 457.06 765.951 466.426 778.082 467.516L780.135 467.702Z" fill="#F4F4F4"/>
<path d="M802.656 581.656L773.292 614.797L743.803 587.444L695.745 641.651L725.264 669.004L696.025 701.989L612.599 624.692L641.838 591.676L673.566 621.082L721.594 566.875L689.866 537.469L719.199 504.359L802.656 581.656Z" fill="#F4F4F4"/>
<path d="M497.476 668.008L561.119 654.628L566.282 634.494L609.426 625.47L575.21 750.813L518.006 762.825L438.81 661.256L485.469 651.485L497.476 668.008ZM542.3 728.782L553.342 685.808L516.357 693.587L542.3 728.782Z" fill="#F4F4F4"/>
<path d="M300.016 664.71L337.343 693.307C364.747 655.966 375.883 646.132 386.646 641.807C397.408 637.482 408.42 638.944 424.782 651.578L435.918 660.073L416.29 686.741L414.486 685.341C409.633 681.638 406.46 679.989 402.292 681.327C395.573 683.225 386.739 692.591 350.905 741.229L247.914 662.376L316.813 569.022L351.216 595.348L300.016 664.71Z" fill="#F4F4F4"/>
<path d="M237.213 445.92L309.255 516.744L309.752 561.056L196.371 564.355L195.843 520.043L267.168 517.958L195.003 447.133L194.474 402.821L307.886 399.523L308.384 443.835L237.213 445.92Z" fill="#F4F4F4"/>
<path d="M291.96 318.679L252.642 349.205L234.196 324.031L347.608 235.998L366.023 261.142L326.705 291.668L375.883 358.696L341.076 385.675L291.96 318.679Z" fill="#F4F4F4"/>
<path d="M527.898 225.916L526.653 254.327L443.943 251.931L443.29 266.432L524.352 268.797L523.107 297.052L442.077 294.687L441.392 310.619L525.316 313.046L524.04 342.11L397.471 338.438L402.51 222.306L527.898 225.916Z" fill="#F4F4F4"/>
<path d="M602.863 311.304L571.85 273.06L595.771 252.584L685.262 362.866L661.342 383.342L630.298 345.129L566.531 399.71L539.096 365.916L602.863 311.304Z" fill="#F4F4F4"/>
</g>
<defs>
<clipPath id="clip0_105_159">
<rect width="843" height="854" fill="white"/>
</clipPath>
</defs>
</svg>
