<svg width="18" height="18" viewBox="0 0 18 18" fill="none" xmlns="http://www.w3.org/2000/svg">
<path d="M9 18C13.9706 18 18 13.9706 18 9C18 4.02937 13.9706 0 9 0C4.02937 0 0 4.02937 0 9C0 13.9706 4.02937 18 9 18Z" fill="#F66C1A"/>
<path d="M5.11874 4.93837V7.99987C5.58487 7.44412 6.14362 7.16437 6.79162 7.16437C7.12537 7.16437 7.42424 7.22812 7.69237 7.35449C7.96124 7.48012 8.16224 7.64137 8.29799 7.83712C8.43449 8.03475 8.52674 8.25112 8.57662 8.48962C8.62612 8.727 8.65087 9.09637 8.65087 9.59737V12.8707H7.20262V9.92249C7.20262 9.33749 7.17637 8.967 7.12124 8.8095C7.0696 8.65521 6.96714 8.52301 6.83062 8.4345C6.69112 8.34037 6.51749 8.29387 6.30787 8.29387C6.06787 8.29387 5.85262 8.35387 5.66549 8.47312C5.47424 8.59312 5.33699 8.77237 5.24999 9.012C5.16149 9.252 5.11724 9.60637 5.11874 10.0755L5.11724 12.8707H3.67087V4.93837H5.11912H5.11874ZM10.8214 4.93837V7.99987C11.2879 7.44412 11.8462 7.16437 12.4939 7.16437C12.8265 7.16437 13.1276 7.22812 13.3961 7.35449C13.6639 7.48012 13.8649 7.64137 13.9999 7.83712C14.1361 8.03343 14.2309 8.25545 14.2785 8.48962C14.3284 8.727 14.3531 9.09637 14.3531 9.59737V12.8707H12.9064V9.92249C12.9064 9.33749 12.879 8.967 12.8239 8.8095C12.7722 8.655 12.6694 8.52272 12.5325 8.4345C12.3945 8.34037 12.2194 8.29387 12.0097 8.29387C11.7701 8.29387 11.5549 8.35387 11.3674 8.47312C11.1787 8.59312 11.0407 8.77237 10.9526 9.012C10.8656 9.252 10.8214 9.60637 10.8214 10.0755V12.8707H9.37499V4.93837H10.8214Z" fill="#FEFEFE"/>
</svg>
